<?xml version="1.0" encoding="UTF-8"?>
<svg width="205" height="160" viewBox="0 0 205 160" version="1.1" xmlns="http://www.w3.org/2000/svg" xmlns:xlink='http://www.w3.org/1999/xlink'>
<defs>
<clipPath id="clip">
<circle cx="109.07056" cy="108.88927" r="79.098022" />
</clipPath>
</defs>
<g style="stroke-linejoin: round" id="page1" transform="translate(-29,-29)">
<circle style="fill: #ee8888; stroke: none;" cx="109.07056" cy="108.88927" r="79.098022" />
<path style="fill: #ffcc99; stroke: #000000; stroke-width: 1;" d="m 179.48105 111.71287 c 0 0 9.98011 -6.27782 15.2921 -6.27782 5.312 0 6.43879 3.86327 4.34618 4.50715 -2.0926 0.64388 -4.99005 2.41455 -4.99005 2.41455 0.4953 1.95197 0.61916 3.77812 -1.6097 4.34617 -2.27115 0.57883 -13.36047 6.59975 -13.36047 6.59975 z" />
<path style="fill: #aabbee; stroke: #000000; stroke-width: 1" d="m 195.578 103.66439 28.81355 -5.955875 5.15103 14.970165 -33.3207 5.95588 z" />
<path style="fill: #ffffff; stroke: #000000; stroke-width: 1;" d="m 196.22188 118.63456 3.7023 12.95805 26.39901 -8.04848 3.21939 -10.86545 z" />
<path style="fill: #aabbee; stroke: #000000; stroke-width: 1;" d="m 199.92418 131.59261 -3.78278 9.57768 33.48166 -6.11684 -3.29987 -11.50932 z" />
<path style="fill: #ffffff; stroke: #000000; stroke-width: 1;" d="m 196.1414 141.17029 33.48166 -6.11684 -3.46084 8.07256 -25.99659 6.59975 z" />
<path style="fill: #aabbee; stroke: #000000; stroke-width: 1;" d="m 200.16563 149.72576 25.99659 -6.59975 4.7486 8.85332 -32.19391 5.39248 z" />
<path style="fill: #ffffff; stroke: #000000; stroke-width: 1;" d="m 198.71691 157.37181 32.19391 -5.39248 -2.89745 8.26585 -29.21598 5.07055 z" />
<path style="fill: #aabbee; stroke: #000000; stroke-width: 1;" d="m 198.79739 165.31573 29.21598 -5.07055 4.1852 9.25575 -36.54008 4.18521 z" />
<path style="fill: #ffffff; stroke: #000000; stroke-width: 1;" d="m 195.65849 173.68614 36.54008 -4.18521 -7.7972 11.36328 -21.45557 1.99189 z" />
<path style="fill: #ffcc99; stroke: #000000; stroke-width: 1;" d="m 194.12928 112.35675 c 0 0 7.8875 -0.32194 8.04847 2.0926 0.16097 2.41454 -7.4046 1.60969 -9.65817 2.25357" />
<path style="fill: #3355aa; stroke: #000000; stroke-width: 1;" clip-path="url(#clip)" d="m 103.42314 106.56197 c 0 0 -36.768199 24.46148 -43.220613 31.55001 -8.116202 8.91635 -10.119279 23.47454 -10.119279 23.47454 v 27.40077 h 87.803782 c 0 0 2.89656 -15.062 8.43427 -25.12029 7.88751 -14.32629 34.93017 -30.90612 34.93017 -30.90612 0 0 0.96611 -2.73667 2.09289 -10.94611 1.12679 -8.20945 -2.73678 -13.68236 -2.73678 -13.68236 0 0 -38.31028 13.68236 -51.99269 13.68236 -13.68241 0 -25.19175 -15.4528 -25.19175 -15.4528 z" />
<path style="fill: #333366; stroke: #000000; stroke-width: 1;" d="m 101.18834 103.4648 c 0 0 20.03279 12.74814 19.00839 21.17101 -1.02441 8.42288 -3.07321 12.74814 -3.07321 12.74814 0 0 -0.84361 -2.85159 -4.78055 -2.16263 -4.55291 0.79676 -8.992 6.82936 -8.992 6.82936 0 0 13.96882 6.94437 10.69934 7.39847 -4.09762 0.56912 -13.20344 2.73175 -16.276645 11.49609 -3.073212 8.76435 -10.130216 -0.79676 -10.130216 -0.79676 0 0 -7.770862 -14.15125 -10.471687 -21.85395 -2.548802 -7.26913 -9.56648 1.726 -10.016394 0.11383 -3.447993 -12.35515 34.032972 -34.94356 34.032972 -34.94356 z" />
<path style="fill: #aabbee; stroke: #000000; stroke-width: 1;" d="m 91.618479 123.61317 c 0 0 -8.154823 4.05304 -7.993853 9.0431 0.16097 4.99006 4.562388 2.83057 4.562388 2.83057 0 0 -9.572541 9.21628 -2.328912 12.59664 4.055547 1.89259 1.58861 7.2119 1.669093 8.62038 0.175443 3.07031 6.851462 -10.11584 11.19764 -13.4962 4.346175 -3.38036 16.045065 -14.25626 15.417365 -23.93258 -0.30858 -4.75698 -13.25454 -9.81579 -13.25454 -9.81579 z" />
<path style="fill: #ffcc99; stroke: #000000; stroke-width: 1;" d="m 120.65202 157.98585 c 0 0 3.98379 -3.07321 6.71553 -3.41468 2.73175 -0.34147 5.12203 -0.68294 4.55291 0.79676 -0.56911 1.4797 -5.69113 3.86997 -5.69113 3.86997 0 0 9.20465 -0.3679 11.82257 -2.53053 2.61792 -2.16263 4.05191 -3.1415 4.93866 -2.13948 0.88674 1.00202 -1.47195 6.54226 -5.37897 9.33674 -6.84791 4.89793 -17.52868 5.46349 -17.52868 5.46349 z" />
<path style="fill: #3355aa; stroke: #000000; stroke-width: 1;" clip-path="url(#clip)" d="m 74.528901 154.69174 c 0 0 12.631914 4.74229 25.916099 5.15103 10.46302 0.32193 21.24798 -3.86328 21.24798 -3.86328 0 0 0.96582 9.49721 1.77066 13.03854 0.80485 3.54133 2.09261 7.8875 2.09261 7.8875 0 0 -18.35053 7.08266 -22.85768 11.1069" />
<path style="fill: #ffffff; stroke: #000000; stroke-width: 1;" d="m 76.21912 75.253288 -9.254215 3.983736 c 0 0 -3.091783 4.60604 -2.705261 7.311698 0.386524 2.705661 2.576586 7.762834 2.576586 7.762834 0 0 -2.216416 -2.03195 -4.735111 -0.966349 -3.349863 1.417249 -4.154799 6.828823 -0.547253 9.792163 0.741224 0.60887 1.527147 0.99294 2.308386 1.21957 -0.775078 0.77848 -0.895583 2.39321 -0.895574 3.16005 -0.01412 2.04302 1.545873 3.19014 3.831274 3.1209 -0.236951 0.53835 -0.790295 2.20447 -0.250268 4.36366 0.540027 2.1592 3.584855 3.96486 8.175006 3.96475 3.030841 -10.07703 3.650566 -30.102691 1.49643 -43.713012 z" />
<path style="fill: #ffcc99; stroke: #000000; stroke-width: 1;" d="m 71.893239 108.99942 c 0 0 -0.128842 5.73343 1.288407 9.21213 1.417251 3.47871 4.122912 8.89002 11.660105 10.24286 7.537193 1.35283 15.783009 0.70862 19.648239 -4.63828 3.86523 -5.3469 9.0414 -15.90316 9.0414 -15.90316 L 108.2319 75.252147 c -11.358295 -0.270692 -21.789068 0.07953 -32.93342 1.660329 0 0 -4.56481 7.510543 -4.113867 11.955553 0.450943 4.445013 0.547574 10.95148 0.547574 10.95148 z" />
<path style="fill:none; stroke: #000000; stroke-width: 1;" d="m 73.729222 86.130161 c 0 0 0.497928 -1.302758 2.415765 -1.771563 2.898922 -0.708626 5.765633 1.449459 5.765633 1.449459" />
<path style="fill:none; stroke: #000000; stroke-width: 1;" d="m 87.257518 84.294177 c 0 0 0.225472 2.222507 2.029244 2.125874 1.427593 -0.07648 3.414285 -2.222505 5.31469 -1.674931 1.481128 0.426765 3.671964 3.382073 3.671964 3.382073" />
<path style="fill: #ffffff; stroke: #000000; stroke-width: 1;" d="m 77.98097 90.929485 c -1.707142 -0.305997 -3.961857 1.900404 -3.671964 3.704178 0.289891 1.80377 1.642721 3.446494 1.642721 3.446494 l 3.543126 -1.28841 1.707142 -3.543125 c 0 0 -1.513883 -2.01314 -3.221025 -2.319137 z" />
<ellipse style="fill: #000000; stroke: #000000; stroke-width: 1;" cx="78.128212" cy="94.617554" rx="0.90188652" ry="1.2400939" />
<path style="fill: #ffffff; stroke: #000000; stroke-width: 1;" d="m 91.283797 91.251586 c -3.027762 -0.209366 -4.834179 2.848079 -3.543124 5.346899 0.998516 1.932615 5.346897 1.739353 6.409834 -0.03221 1.06294 -1.771563 0.161052 -5.105322 -2.86671 -5.314689 z" />
<ellipse style="fill: #000000; stroke: #000000; stroke-width: 1;" cx="91.595337" cy="95.285667" rx="0.90188652" ry="1.2400939" />
<path style="fill: #772222; stroke: #000000; stroke-width: 1;" d="m 78.335284 113.25117 c 0 0 2.567865 1.34653 5.346899 1.03073 2.834499 -0.3221 7.988136 -3.8008 7.988136 -3.8008 0 0 -2.193654 8.14456 -5.926683 8.5035 -6.699727 0.6442 -7.408352 -5.73343 -7.408352 -5.73343 z" />
<path style="fill: #ffcc99; stroke: #000000; stroke-width: 1;" d="m 80.912101 91.219376 c 0 0 -0.25768 5.024797 -2.8345 5.540161 -2.576816 0.515363 -10.436113 2.963341 -9.66307 7.601613 0.773047 4.63827 4.767115 8.37466 7.601617 7.47278 2.8345 -0.90189 5.282478 -4.12291 6.442046 -4.12291 1.159568 0 1.417248 1.03072 3.221021 0 1.803773 -1.03073 2.995552 -4.63827 2.641242 -5.6368 -0.823141 -2.319788 -2.73787 -0.16105 -2.73787 -0.16105" />
<path style="fill: #ffcc99; stroke: #000000; stroke-width: 1;" d="m 79.816954 122.33446 c 0 0 -2.576817 4.12291 -0.708626 5.9911 1.868194 1.8682 6.506469 2.77008 10.629379 1.8682 4.122909 -0.90189 7.730455 -3.92965 8.052556 -7.15067" />
<path style="fill: #ffffff; stroke: #000000; stroke-width: 1;" d="m 110.51573 76.885746 c -3.02368 0.09696 -5.56348 0.689364 -5.56348 0.689364 0 0 -1.27573 3.781092 -0.45579 5.967594 0.85147 2.270581 1.77664 3.05201 1.77664 3.05201 0 0 -2.49671 1.954569 -0.31884 6.377389 1.33359 2.70826 2.32337 2.733166 2.32337 2.733166 0 0 -2.23077 1.630632 -1.13895 5.146971 1.13203 3.64587 3.04275 6.51021 5.33352 8.25583 l -2.30115 4.53047 c 0 0 -0.47225 4.54479 4.04627 5.86166 4.80066 1.39909 7.07387 -0.24716 8.08581 -1.43195 0.7275 -0.85175 2.14509 -3.36776 2.14509 -3.36776 0 0 3.9633 -1.59458 4.73769 -5.05654 0.77439 -3.46197 0.78681 -5.02027 -0.77463 -6.51381 -1.0477 -1.00215 -2.91506 -0.68316 -2.91506 -0.68316 0 0 5.50343 -4.065171 4.87412 -7.744233 -0.59218 -3.461963 -3.37102 -4.464168 -5.42086 -4.555278 -1.98257 -0.08812 -3.23391 0.957048 -3.23391 0.957048 0 0 2.91531 -6.149551 -2.73317 -11.934672 -1.93532 -1.982144 -5.44298 -2.381053 -8.46667 -2.284099 z" />
<path style="fill: #333366; stroke: #000000; stroke-width: 1;" d="m 90.175163 77.016809 c 7.666036 -0.257681 30.159147 4.144584 33.369797 4.509431 5.66901 0.644207 20.35687 -5.282478 18.42426 -9.663067 -1.93262 -4.380593 -12.13951 -1.219642 -20.66909 -9.55399 -5.08847 -4.972002 -13.04939 -20.364299 -20.97025 -19.345901 -9.018861 1.159569 -11.733216 11.867593 -11.733216 11.867593 0 0 0.559313 -10.58598 -4.326842 -10.920651 -9.405389 -0.644205 -14.390018 12.725349 -19.380678 17.91205 -5.812728 6.041061 -13.696613 8.554173 -13.881622 11.329306 -0.257682 3.865229 9.79191 8.761183 15.074389 7.601616 5.353944 -1.175256 16.427216 -3.478706 24.093252 -3.736387 z" />
<path style="fill: #3355aa; stroke: #000000; stroke-width: 1;" d="m 84.64858 42.517301 c -4.913446 -0.610053 -9.950741 4.344276 -12.285038 7.025923 -3.515182 4.038251 -6.478283 8.805437 -8.973613 11.398788 -6.065809 6.304084 -13.781636 9.779041 -13.013676 11.672155 0.76796 1.893114 11.558927 -5.425436 15.525668 -10.383862 4.12291 -5.153639 11.477033 -18.812838 17.071826 -17.457849 8.245818 1.997035 0.450779 17.973231 4.122746 17.844389 3.671966 -0.128841 3.88061 -19.139715 12.562023 -18.424199 9.395564 0.774375 13.818914 12.671303 20.840744 19.564294 6.78879 6.664222 19.89723 10.068898 20.72118 6.990009 0.42622 -3.692 -10.11674 -0.507053 -18.40925 -9.053498 -5.27506 -5.255934 -12.93124 -19.246545 -21.68455 -20.49442 -4.957987 -0.706812 -10.24038 4.253001 -11.582235 9.564312 -0.01892 -2.813359 -1.109191 -7.775929 -4.895825 -8.246042 z" />
</g>
</svg>
